<svg width="165" height="56" viewBox="0 0 165 56" fill="none" xmlns="http://www.w3.org/2000/svg">
<path d="M35.4612 23.1406C35.4612 27.6186 31.831 31.2488 27.353 31.2488C22.875 31.2488 19.2448 27.6186 19.2448 23.1406C19.2448 18.6626 22.875 15.0324 27.353 15.0324C31.831 15.0324 35.4612 18.6626 35.4612 23.1406Z" fill="#004E89"/>
<path d="M43.4179 29.941C43.4179 31.7581 41.9449 33.2311 40.1278 33.2311C38.3108 33.2311 36.8378 31.7581 36.8378 29.941C36.8378 28.1239 38.3108 26.6509 40.1278 26.6509C41.9449 26.6509 43.4179 28.1239 43.4179 29.941Z" fill="#004E89"/>
<path d="M48.9518 28.8535C48.9518 29.7354 48.2369 30.4503 47.355 30.4503C46.473 30.4503 45.7581 29.7354 45.7581 28.8535C45.7581 27.9716 46.473 27.2566 47.355 27.2566C48.2369 27.2566 48.9518 27.9716 48.9518 28.8535Z" fill="#004E89"/>
<path d="M36.7553 36.0944C36.7553 38.36 34.9124 40.1967 32.6392 40.1967C30.3659 40.1967 28.5231 38.36 28.5231 36.0944C28.5231 33.8288 30.3659 31.9921 32.6392 31.9921C34.9124 31.9921 36.7553 33.8288 36.7553 36.0944Z" fill="#004E89"/>
<path d="M25.7699 37.7601C25.7699 39.197 24.6051 40.3619 23.1681 40.3619C21.7312 40.3619 20.5664 39.197 20.5664 37.7601C20.5664 36.3232 21.7312 35.1583 23.1681 35.1583C24.6051 35.1583 25.7699 36.3232 25.7699 37.7601Z" fill="#004E89"/>
<path d="M19.1072 33.2448C19.1072 35.0619 17.6342 36.5349 15.8171 36.5349C14.0001 36.5349 12.527 35.0619 12.527 33.2448C12.527 31.4278 14.0001 29.9548 15.8171 29.9548C17.6342 29.9548 19.1072 31.4278 19.1072 33.2448Z" fill="#004E89"/>
<path d="M10.5172 33.7955C10.5172 34.9587 9.57423 35.9017 8.41101 35.9017C7.24779 35.9017 6.30482 34.9587 6.30482 33.7955C6.30482 32.6323 7.24779 31.6893 8.41101 31.6893C9.57423 31.6893 10.5172 32.6323 10.5172 33.7955Z" fill="#004E89"/>
<path d="M16.4916 24.0629C16.4916 27.4081 13.7798 30.12 10.4346 30.12C7.08941 30.12 4.37758 27.4081 4.37758 24.0629C4.37758 20.7177 7.08941 18.0059 10.4346 18.0059C13.7798 18.0059 16.4916 20.7177 16.4916 24.0629Z" fill="#004E89"/>
<path d="M31.1111 6.05703C31.1111 9.40224 28.3993 12.1141 25.0541 12.1141C21.7089 12.1141 18.997 9.40224 18.997 6.05703C18.997 2.71182 21.7089 0 25.0541 0C28.3993 0 31.1111 2.71182 31.1111 6.05703Z" fill="#004E89"/>
<path d="M49.4474 20.057C49.4474 23.1209 46.9636 25.6047 43.8997 25.6047C40.8358 25.6047 38.352 23.1209 38.352 20.057C38.352 16.9931 40.8358 14.5093 43.8997 14.5093C46.9636 14.5093 49.4474 16.9931 49.4474 20.057Z" fill="#004E89"/>
<path d="M44.7945 10.6824C44.7945 12.1269 43.6235 13.2979 42.179 13.2979C40.7344 13.2979 39.5634 12.1269 39.5634 10.6824C39.5634 9.23788 40.7344 8.06686 42.179 8.06686C43.6235 8.06686 44.7945 9.23788 44.7945 10.6824Z" fill="#004E89"/>
<path d="M37.939 11.7286C37.939 13.5533 36.4599 15.0324 34.6352 15.0324C32.8105 15.0324 31.3314 13.5533 31.3314 11.7286C31.3314 9.90396 32.8105 8.42478 34.6352 8.42478C36.4599 8.42478 37.939 9.90396 37.939 11.7286Z" fill="#F5EB00"/>
<path d="M19.3274 13.353C19.3274 15.4514 17.6264 17.1524 15.528 17.1524C13.4297 17.1524 11.7286 15.4514 11.7286 13.353C11.7286 11.2546 13.4297 9.55359 15.528 9.55359C17.6264 9.55359 19.3274 11.2546 19.3274 13.353Z" fill="#004E89"/>
<path d="M10.1593 11.5634C10.1593 13.3881 8.68011 14.8673 6.85546 14.8673C5.0308 14.8673 3.55162 13.3881 3.55162 11.5634C3.55162 9.73876 5.0308 8.25959 6.85546 8.25959C8.68011 8.25959 10.1593 9.73876 10.1593 11.5634Z" fill="#004E89"/>
<path d="M15.5831 4.79056C15.5831 6.007 14.597 6.99312 13.3805 6.99312C12.1641 6.99312 11.178 6.007 11.178 4.79056C11.178 3.57412 12.1641 2.588 13.3805 2.588C14.597 2.588 15.5831 3.57412 15.5831 4.79056Z" fill="#004E89"/>
<path d="M38.5172 2.91839C38.5172 4.13483 37.5311 5.12094 36.3146 5.12094C35.0982 5.12094 34.1121 4.13483 34.1121 2.91839C34.1121 1.70195 35.0982 0.715831 36.3146 0.715831C37.5311 0.715831 38.5172 1.70195 38.5172 2.91839Z" fill="#004E89"/>
<path fill-rule="evenodd" clip-rule="evenodd" d="M25.1642 41.766H28.3304V48.5113H46.5565V51.6224H7.54376V48.5113H25.1642V41.766ZM54.1278 52.8338H0V56H54.1278V52.8338Z" fill="#004E89"/>
<path d="M111.918 2.68089V7.74583H115.77V6.89246H112.94V5.51394H115.483V4.66057H112.94V3.53772H115.673V2.68089H111.918Z" fill="#004E89"/>
<path d="M113.694 1.35765L113.217 2.39068H113.832L114.782 1.35765H113.694Z" fill="#004E89"/>
<path d="M67.4529 6.19802L66.4613 5.88362C66.3761 6.25445 66.2356 6.52624 66.0398 6.69898C65.844 6.87173 65.6102 6.9581 65.3384 6.9581C64.9699 6.9581 64.6705 6.82221 64.4402 6.55042C64.2098 6.27863 64.0947 5.82258 64.0947 5.18227C64.0947 4.5788 64.211 4.14233 64.4436 3.87284C64.6786 3.60336 64.9837 3.46862 65.3592 3.46862C65.631 3.46862 65.8613 3.54463 66.0502 3.69664C66.2413 3.84866 66.3669 4.05596 66.4268 4.31853L67.439 4.07669C67.3239 3.67131 67.1511 3.36036 66.9208 3.14385C66.5339 2.77763 66.0306 2.59452 65.411 2.59452C64.7016 2.59452 64.1292 2.8283 63.6939 3.29587C63.2586 3.76113 63.0409 4.41527 63.0409 5.25827C63.0409 6.05521 63.2574 6.68401 63.6904 7.14467C64.1235 7.60303 64.6763 7.8322 65.3488 7.8322C65.8924 7.8322 66.3404 7.69861 66.6928 7.43143C67.0475 7.16195 67.3008 6.75081 67.4529 6.19802Z" fill="#004E89"/>
<path fill-rule="evenodd" clip-rule="evenodd" d="M79.6084 3.9454C79.4541 4.2955 79.377 4.72852 79.377 5.24445C79.377 6.05061 79.5992 6.68401 80.0438 7.14467C80.4883 7.60303 81.0872 7.8322 81.8403 7.8322C82.5843 7.8322 83.1785 7.60187 83.6231 7.14122C84.0676 6.67825 84.2899 6.03794 84.2899 5.22027C84.2899 4.39569 84.0653 3.75192 83.6162 3.28896C83.1693 2.826 82.5728 2.59452 81.8265 2.59452C81.4142 2.59452 81.0503 2.66131 80.7347 2.7949C80.4975 2.89395 80.2787 3.04596 80.0783 3.25096C79.8802 3.45595 79.7236 3.68743 79.6084 3.9454ZM80.828 6.51587C80.5632 6.21875 80.4307 5.78342 80.4307 5.20991C80.4307 4.62717 80.5597 4.19185 80.8177 3.90394C81.0756 3.61372 81.4154 3.46862 81.8369 3.46862C82.2584 3.46862 82.5958 3.61142 82.8492 3.89703C83.1048 4.18264 83.2327 4.61566 83.2327 5.19609C83.2327 5.78342 83.1014 6.22451 82.8388 6.51933C82.5785 6.81184 82.2446 6.9581 81.8369 6.9581C81.4292 6.9581 81.0929 6.81069 80.828 6.51587Z" fill="#004E89"/>
<path d="M96.3695 7.74583V2.72235H97.3921V6.89246H99.935V7.74583H96.3695Z" fill="#004E89"/>
<path d="M130.244 5.88362V5.03025H132.448V7.04793C132.234 7.25523 131.923 7.43834 131.515 7.59727C131.11 7.75389 130.699 7.8322 130.282 7.8322C129.752 7.8322 129.29 7.72165 128.896 7.50053C128.503 7.27711 128.207 6.95926 128.009 6.54697C127.81 6.13237 127.711 5.68208 127.711 5.19609C127.711 4.66863 127.822 4.19991 128.043 3.78993C128.264 3.37994 128.588 3.06554 129.014 2.84673C129.339 2.67859 129.743 2.59452 130.227 2.59452C130.855 2.59452 131.346 2.72696 131.698 2.99184C132.053 3.25441 132.281 3.61833 132.382 4.0836L131.367 4.27362C131.295 4.02486 131.161 3.82908 130.962 3.68628C130.767 3.54117 130.521 3.46862 130.227 3.46862C129.78 3.46862 129.424 3.61027 129.159 3.89357C128.896 4.17688 128.765 4.59723 128.765 5.15463C128.765 5.75579 128.899 6.20723 129.166 6.50896C129.433 6.80839 129.783 6.9581 130.216 6.9581C130.43 6.9581 130.645 6.91664 130.859 6.83373C131.075 6.7485 131.261 6.64601 131.415 6.52624V5.88362H130.244Z" fill="#004E89"/>
<path d="M144.614 2.68089V7.74583H145.637V2.68089H144.614Z" fill="#004E89"/>
<path fill-rule="evenodd" clip-rule="evenodd" d="M157.658 5.24445C157.658 4.72852 157.735 4.2955 157.889 3.9454C158.004 3.68743 158.161 3.45595 158.359 3.25096C158.559 3.04596 158.778 2.89395 159.015 2.7949C159.331 2.66131 159.695 2.59452 160.107 2.59452C160.853 2.59452 161.45 2.826 161.897 3.28896C162.346 3.75192 162.57 4.39569 162.57 5.22027C162.57 6.03794 162.348 6.67825 161.904 7.14122C161.459 7.60187 160.865 7.8322 160.121 7.8322C159.368 7.8322 158.769 7.60303 158.324 7.14467C157.88 6.68401 157.658 6.05061 157.658 5.24445ZM158.711 5.20991C158.711 5.78342 158.844 6.21875 159.109 6.51587C159.374 6.81069 159.71 6.9581 160.117 6.9581C160.525 6.9581 160.859 6.81184 161.119 6.51933C161.382 6.22451 161.513 5.78342 161.513 5.19609C161.513 4.61566 161.385 4.18264 161.13 3.89703C160.876 3.61142 160.539 3.46862 160.117 3.46862C159.696 3.46862 159.356 3.61372 159.098 3.90394C158.84 4.19185 158.711 4.62717 158.711 5.20991Z" fill="#004E89"/>
<path fill-rule="evenodd" clip-rule="evenodd" d="M82.394 25.4766C79.957 24.4882 78.764 22.2727 78.747 19.6993C78.747 19.2903 78.7811 18.1655 79.2242 17.0407C80.2297 14.5525 82.5474 13.3937 85.1208 13.3937C87.4045 13.3937 88.9212 14.331 89.5518 14.8763C90.3357 15.541 91.5287 17.0748 91.5287 19.6823C91.5287 20.3469 91.4605 22.1363 90.3016 23.6702C89.6029 24.5734 88.018 26.0049 85.1719 26.0049C84.6947 26.0049 83.587 25.9709 82.394 25.4766ZM81.4568 19.4067L81.4567 19.4096C81.3885 20.9263 81.6782 22.3749 82.8882 23.3804C83.5359 23.9087 84.2857 24.1473 85.1378 24.1473C85.4275 24.1473 86.1604 24.1303 86.8591 23.7724C87.6771 23.3293 88.836 22.1193 88.836 19.7845C88.836 19.2828 88.7639 18.7235 88.7391 18.531L88.7363 18.5096C88.7353 18.502 88.7345 18.4952 88.7337 18.4893C88.6485 17.9439 88.3929 16.6487 87.1147 15.8137C86.825 15.6262 86.1092 15.2342 85.1378 15.2342C84.8311 15.2342 84.0983 15.2683 83.3654 15.6603C81.5452 16.6639 81.474 18.8732 81.4568 19.4067Z" fill="#004E89"/>
<path d="M66.741 13.6834L69.2291 22.6476L71.7855 13.7004H77.4094V15.4217H75.8245V23.9599H77.4265V25.7152H72.1434V23.994H73.4727V15.3535L70.405 25.7152H67.8146C67.5751 24.8768 67.3297 24.0383 67.0853 23.2033C66.9124 22.6126 66.74 22.0236 66.5705 21.4376C65.974 19.3925 65.3776 17.3475 64.747 15.3024V23.9599H66.0763V25.6982H61.0659V23.9428H62.5997V15.4046H61.117V13.6834H66.741Z" fill="#004E89"/>
<path d="M102.751 22.7669L98.0302 13.7004H92.9857V15.4217H94.4343V24.011H92.9516V25.7152H98.2517V23.9769H96.6327V16.3249L101.643 25.6982H104.966V15.4217H106.381V13.7004H101.149V15.4217H102.751V22.7669Z" fill="#004E89"/>
<path d="M107.224 17.8247V13.6834H118.183V17.8247H116.018V15.4728H113.973V23.9599H115.694V25.7152H109.644V23.9599H111.383V15.4558H109.389V17.8247H107.224Z" fill="#004E89"/>
<path d="M119.06 23.9599V25.7152H129.933V21.8125H127.837V23.994H123.116V20.4321H124.888V22.0341H126.814V17.1259H124.888V18.7449H123.116V15.3876H127.837V17.2963H129.933V13.6834H119.077V15.4217H120.56V23.9599H119.06Z" fill="#004E89"/>
<path d="M131.688 25.6982V23.9428H133.273V15.4217H131.705V13.6834H137.448V15.4217H135.863V23.9428H137.431V25.6982H131.688Z" fill="#004E89"/>
<path fill-rule="evenodd" clip-rule="evenodd" d="M149.054 21.6251C148.594 20.5514 148.321 20.2617 147.179 19.972C147.742 19.8186 148.202 19.6823 148.713 19.3073C149.693 18.5804 149.72 17.5312 149.733 17.0563C149.734 17.0191 149.735 16.9852 149.736 16.9555C149.736 16.5806 149.719 15.6944 149.088 14.8763C148.219 13.7686 146.787 13.7004 145.458 13.6834H138.692V15.4217H140.277V23.9599H138.675V25.6982H144.299V23.9428H142.817V20.7218H144.674C145.356 20.773 145.833 20.8241 146.225 21.4206C146.336 21.5733 146.402 21.7374 146.469 21.9036C146.484 21.9411 146.499 21.9794 146.515 22.0171L147.623 25.7152H150.963V23.9428H149.787L149.651 23.602L149.054 21.6251ZM142.783 19.0517V15.4217H145.186C145.194 15.4222 145.203 15.4226 145.213 15.4231C145.224 15.4235 145.236 15.424 145.248 15.4246C145.631 15.4406 146.723 15.4863 147.06 16.5294C147.162 16.8192 147.162 17.0918 147.162 17.2111C147.145 17.4668 147.128 17.6542 147.043 17.8928C146.679 18.923 145.621 19.0099 145.201 19.0444C145.189 19.0454 145.177 19.0464 145.166 19.0473C145.148 19.0488 145.132 19.0502 145.117 19.0517H142.783Z" fill="#004E89"/>
<path fill-rule="evenodd" clip-rule="evenodd" d="M155.411 25.4766C152.974 24.4882 151.781 22.2727 151.764 19.6993C151.764 19.2903 151.798 18.1655 152.241 17.0407C153.246 14.5525 155.564 13.3937 158.138 13.3937C160.421 13.3937 161.938 14.331 162.569 14.8763C163.353 15.541 164.546 17.0748 164.546 19.6823C164.546 20.3469 164.477 22.1363 163.318 23.6702C162.62 24.5734 161.035 26.0049 158.189 26.0049C157.712 26.0049 156.604 25.9709 155.411 25.4766ZM154.474 19.4067L154.474 19.4096C154.405 20.9263 154.695 22.3749 155.905 23.3804C156.553 23.9087 157.303 24.1473 158.155 24.1473C158.444 24.1473 159.177 24.1303 159.876 23.7724C160.694 23.3293 161.853 22.1193 161.853 19.7845C161.853 19.2828 161.781 18.7233 161.756 18.5309L161.756 18.5293L161.753 18.5089C161.752 18.5016 161.751 18.495 161.751 18.4893C161.665 17.9439 161.41 16.6487 160.132 15.8137C159.842 15.6262 159.126 15.2342 158.155 15.2342C157.848 15.2342 157.115 15.2683 156.382 15.6603C154.562 16.664 154.491 18.8732 154.474 19.4067Z" fill="#004E89"/>
<path fill-rule="evenodd" clip-rule="evenodd" d="M91.4987 41.0047C89.0617 40.0162 87.8687 37.8007 87.8517 35.2273C87.8517 34.8183 87.8858 33.6935 88.3289 32.5687C89.3344 30.0806 91.6521 28.9217 94.2255 28.9217C96.5092 28.9217 98.0259 29.859 98.6565 30.4044C99.4404 31.069 100.633 32.6028 100.633 35.2103C100.633 35.8749 100.565 37.6644 99.4064 39.1982C98.7076 40.1014 97.1227 41.533 94.2766 41.533C93.7994 41.533 92.6917 41.4989 91.4987 41.0047ZM90.5615 34.9347L90.5614 34.9376C90.4932 36.4544 90.783 37.903 91.993 38.9085C92.6406 39.4368 93.3904 39.6754 94.2425 39.6754C94.5323 39.6754 95.2651 39.6583 95.9638 39.3004C96.7819 38.8573 97.9407 37.6473 97.9407 35.3125C97.9407 34.8113 97.8687 34.2524 97.8439 34.0595L97.8407 34.0349C97.8399 34.0284 97.8391 34.0225 97.8385 34.0173C97.7533 33.472 97.4976 32.1768 96.2195 31.3417C95.9297 31.1542 95.214 30.7623 94.2425 30.7623C93.9358 30.7623 93.203 30.7963 92.4702 31.1883C90.65 32.192 90.5787 34.4012 90.5615 34.9347Z" fill="#004E89"/>
<path d="M82.0997 30.9497V39.4538H85.849V37.0338H88.0304V41.2092H78.0436V39.4879H79.5263V30.9497H78.0606V29.2114H84.1106V30.9497H82.0997Z" fill="#004E89"/>
<path fill-rule="evenodd" clip-rule="evenodd" d="M101.375 39.4879V41.2262H103.795C104.323 41.2262 104.86 41.2347 105.397 41.2433C105.933 41.2518 106.47 41.2603 106.999 41.2603C107.697 41.2603 108.396 41.2262 109.078 41.1921C109.674 41.1069 109.845 41.0558 110.168 40.9365C110.816 40.6809 112.231 39.914 112.231 37.9541C112.231 37.4599 112.111 35.9942 110.68 35.2785C110.254 35.0739 109.725 34.9717 109.589 34.9547C109.634 34.942 109.678 34.9299 109.721 34.9182L109.723 34.9177C110.082 34.8187 110.362 34.7415 110.697 34.5286C111.77 33.8469 111.856 32.6539 111.856 32.2449C111.856 31.853 111.804 30.8645 110.969 30.1317C110.156 29.3997 109.156 29.3043 108.771 29.2675C108.76 29.2665 108.75 29.2655 108.741 29.2646C108.734 29.2639 108.727 29.2632 108.72 29.2625C108.311 29.2284 107.919 29.2114 107.51 29.1944C106.794 29.1773 106.061 29.1944 105.345 29.2114C104.016 29.2284 102.687 29.2284 101.375 29.2114V30.9327H102.874V39.4879H101.375ZM105.38 35.892H107.646C108.413 35.9772 108.993 36.0624 109.402 36.71C109.572 36.9997 109.674 37.3406 109.674 37.6644C109.674 38.0223 109.521 38.9596 108.532 39.3345C108.311 39.4368 108.192 39.4538 107.731 39.5049H105.38V35.892ZM105.38 30.8986C105.552 30.8986 105.729 30.8942 105.904 30.8899C106.074 30.8857 106.242 30.8815 106.402 30.8815C106.828 30.8815 107.254 30.8986 107.663 30.9327C107.936 30.9497 108.703 31.0008 109.112 31.7677C109.299 32.1086 109.316 32.3813 109.316 32.5517C109.316 32.9948 109.146 33.2845 109.044 33.4379C108.635 34.0344 108.072 34.1366 107.817 34.1707C107.629 34.2048 107.459 34.2218 107.271 34.2389H105.38V30.8986Z" fill="#004E89"/>
<path fill-rule="evenodd" clip-rule="evenodd" d="M112.001 41.2262V39.4709H112.989L117.301 29.1773H120.403L124.612 39.4879H125.601V41.2433H120.454V39.4879H121.971L121.17 37.5621H116.176L115.443 39.4709H116.875V41.2262H112.001ZM120.522 35.8579L118.698 31.1713L116.841 35.8579H120.522Z" fill="#004E89"/>
<path d="M123.752 29.2114V33.3527H125.916V30.9838H127.91V39.4879H126.172V41.2433H132.222V39.4879H130.501V31.0008H132.546V33.3527H134.71V29.2114H123.752Z" fill="#004E89"/>
<path fill-rule="evenodd" clip-rule="evenodd" d="M138.476 41.0047C136.039 40.0162 134.846 37.8007 134.829 35.2273C134.829 34.8183 134.863 33.6935 135.306 32.5687C136.312 30.0806 138.63 28.9217 141.203 28.9217C143.487 28.9217 145.003 29.859 145.634 30.4044C146.418 31.069 147.611 32.6028 147.611 35.2103C147.611 35.8749 147.543 37.6644 146.384 39.1982C145.685 40.1014 144.1 41.533 141.254 41.533C140.777 41.533 139.669 41.4989 138.476 41.0047ZM137.539 34.9347L137.539 34.9376C137.471 36.4544 137.76 37.903 138.97 38.9085C139.618 39.4368 140.368 39.6754 141.22 39.6754C141.51 39.6754 142.243 39.6583 142.941 39.3004C143.759 38.8573 144.918 37.6473 144.918 35.3125C144.918 34.8108 144.846 34.2514 144.821 34.0589L144.821 34.0574L144.82 34.0506C144.818 34.0375 144.817 34.0264 144.816 34.0173C144.731 33.472 144.475 32.1768 143.197 31.3417C142.907 31.1542 142.191 30.7623 141.22 30.7623C140.913 30.7623 140.18 30.7963 139.448 31.1883C137.627 32.192 137.556 34.4012 137.539 34.9347Z" fill="#004E89"/>
<path d="M89.4878 52.9174H88.5703V47.0944H89.4878V52.9174Z" fill="#004E89"/>
<path d="M76.5079 52.163V52.9174H72.895V47.3977H76.4889V48.1559H73.8466V49.7027H76.125V50.4457H73.8466V52.163H76.5079Z" fill="#004E89"/>
<path d="M77.6199 48.8156L78.4008 50.1765L79.1969 48.8156H80.2015L78.9581 50.8286L80.2508 52.9174H79.2462L78.4122 51.4996L77.5781 52.9174H76.5697L77.8587 50.8286L76.619 48.8156H77.6199Z" fill="#004E89"/>
<path d="M82.5099 52.2654C82.659 52.2654 82.7929 52.2363 82.9117 52.1782C83.033 52.1175 83.1303 52.0341 83.2036 51.928C83.2794 51.8218 83.3211 51.6993 83.3287 51.5602H84.1893C84.1842 51.8256 84.1059 52.067 83.9542 52.2843C83.8026 52.5017 83.6017 52.6748 83.3515 52.8037C83.1013 52.9301 82.8245 52.9933 82.5212 52.9933C82.2078 52.9933 81.9349 52.9402 81.7024 52.834C81.4699 52.7254 81.2765 52.5762 81.1224 52.3867C80.9682 52.1971 80.8519 51.9785 80.7736 51.7308C80.6978 51.4832 80.6599 51.2178 80.6599 50.9347V50.802C80.6599 50.519 80.6978 50.2536 80.7736 50.0059C80.8519 49.7557 80.9682 49.5358 81.1224 49.3463C81.2765 49.1567 81.4699 49.0089 81.7024 48.9027C81.9349 48.7941 82.2066 48.7397 82.5174 48.7397C82.846 48.7397 83.1341 48.8054 83.3818 48.9369C83.6295 49.0658 83.8241 49.2465 83.9656 49.479C84.1097 49.709 84.1842 49.9769 84.1893 50.2827H83.3287C83.3211 50.131 83.2832 49.9946 83.215 49.8732C83.1493 49.7494 83.0558 49.6508 82.9345 49.5775C82.8157 49.5043 82.6729 49.4676 82.5061 49.4676C82.3216 49.4676 82.1687 49.5055 82.0474 49.5813C81.9261 49.6546 81.8313 49.7557 81.763 49.8846C81.6948 50.011 81.6455 50.1538 81.6152 50.313C81.5874 50.4697 81.5735 50.6327 81.5735 50.802V50.9347C81.5735 51.1041 81.5874 51.2683 81.6152 51.4276C81.643 51.5868 81.691 51.7296 81.7592 51.8559C81.83 51.9798 81.9261 52.0796 82.0474 52.1554C82.1687 52.2287 82.3228 52.2654 82.5099 52.2654Z" fill="#004E89"/>
<path fill-rule="evenodd" clip-rule="evenodd" d="M85.6046 52.8454C85.8497 52.944 86.1239 52.9933 86.4272 52.9933C86.6951 52.9933 86.9301 52.9566 87.1323 52.8833C87.337 52.81 87.5102 52.7152 87.6517 52.599C87.7932 52.4802 87.9082 52.3564 87.9967 52.2275L87.5152 51.7612C87.3889 51.9229 87.2397 52.048 87.0679 52.1365C86.896 52.2249 86.7002 52.2692 86.4803 52.2692C86.3059 52.2692 86.1505 52.2376 86.014 52.1744C85.8775 52.1087 85.7612 52.019 85.6652 51.9052C85.5692 51.7915 85.4959 51.6588 85.4453 51.5072C85.4094 51.3917 85.3869 51.2691 85.3778 51.1394H88.0687V50.749C88.0687 50.4533 88.0321 50.1828 87.9588 49.9377C87.888 49.6925 87.7793 49.4815 87.6328 49.3046C87.4887 49.1252 87.3067 48.9861 87.0868 48.8876C86.867 48.789 86.6104 48.7397 86.3173 48.7397C86.0519 48.7397 85.8055 48.789 85.578 48.8876C85.3506 48.9861 85.1534 49.1289 84.9866 49.316C84.8198 49.5005 84.6896 49.7229 84.5961 49.9832C84.5026 50.2435 84.4559 50.5341 84.4559 50.8551V51.0068C84.4559 51.2873 84.5014 51.5489 84.5924 51.7915C84.6833 52.0341 84.8135 52.2452 84.9828 52.4246C85.1547 52.604 85.3619 52.7443 85.6046 52.8454ZM85.3968 50.4836C85.4063 50.4136 85.4187 50.3466 85.434 50.2827C85.4769 50.1108 85.5376 49.9642 85.6159 49.8429C85.6943 49.7216 85.7916 49.6294 85.9078 49.5662C86.0266 49.5005 86.1618 49.4676 86.3135 49.4676C86.5157 49.4676 86.6774 49.5118 86.7987 49.6003C86.92 49.6887 87.0098 49.805 87.0679 49.9491C87.1285 50.0931 87.1614 50.2473 87.1665 50.4116V50.4836H85.3968Z" fill="#004E89"/>
<path fill-rule="evenodd" clip-rule="evenodd" d="M91.2025 52.8454C91.4477 52.944 91.7219 52.9933 92.0252 52.9933C92.2931 52.9933 92.5281 52.9566 92.7303 52.8833C92.935 52.81 93.1081 52.7152 93.2497 52.599C93.3912 52.4802 93.5062 52.3564 93.5947 52.2275L93.1132 51.7612C92.9868 51.9229 92.8377 52.048 92.6659 52.1365C92.494 52.2249 92.2981 52.2692 92.0783 52.2692C91.9039 52.2692 91.7484 52.2376 91.612 52.1744C91.4755 52.1087 91.3592 52.019 91.2632 51.9052C91.1671 51.7915 91.0939 51.6588 91.0433 51.5072C91.0073 51.3917 90.9848 51.2691 90.9758 51.1394H93.6667V50.749C93.6667 50.4533 93.63 50.1828 93.5567 49.9377C93.486 49.6925 93.3773 49.4815 93.2307 49.3046C93.0867 49.1252 92.9047 48.9861 92.6848 48.8876C92.4649 48.789 92.2084 48.7397 91.9152 48.7397C91.6499 48.7397 91.4034 48.789 91.176 48.8876C90.9485 48.9861 90.7514 49.1289 90.5846 49.316C90.4178 49.5005 90.2876 49.7229 90.1941 49.9832C90.1006 50.2435 90.0538 50.5341 90.0538 50.8551V51.0068C90.0538 51.2873 90.0993 51.5489 90.1903 51.7915C90.2813 52.0341 90.4115 52.2452 90.5808 52.4246C90.7527 52.604 90.9599 52.7443 91.2025 52.8454ZM90.9948 50.4836C91.0043 50.4136 91.0167 50.3466 91.0319 50.2827C91.0749 50.1108 91.1355 49.9642 91.2139 49.8429C91.2922 49.7216 91.3895 49.6294 91.5058 49.5662C91.6246 49.5005 91.7598 49.4676 91.9114 49.4676C92.1136 49.4676 92.2754 49.5118 92.3967 49.6003C92.518 49.6887 92.6077 49.805 92.6659 49.9491C92.7265 50.0931 92.7594 50.2473 92.7644 50.4116V50.4836H90.9948Z" fill="#004E89"/>
<path d="M93.1663 48.1408L92.1162 47.0944H91.5778L90.5429 48.1332V48.1824H91.267L91.847 47.5873L92.427 48.1824H93.1663V48.1408Z" fill="#004E89"/>
<path d="M95.0137 52.9174V50.0023C95.0429 49.9458 95.0758 49.8927 95.1123 49.8429C95.1982 49.7292 95.3031 49.6395 95.4269 49.5738C95.5508 49.508 95.691 49.4752 95.8477 49.4752C96.007 49.4752 96.1396 49.5005 96.2458 49.551C96.3545 49.599 96.4366 49.6812 96.4922 49.7974C96.5503 49.9112 96.5794 50.0666 96.5794 50.2637V52.9174H97.4968V50.2675C97.4968 49.987 97.4665 49.7507 97.4058 49.5586C97.3452 49.364 97.2567 49.206 97.1405 49.0847C97.0267 48.9634 96.889 48.8762 96.7273 48.8231C96.568 48.7675 96.3899 48.7397 96.1927 48.7397C95.9476 48.7397 95.7252 48.7877 95.5255 48.8838C95.3258 48.9773 95.154 49.1112 95.0099 49.2856C95.0051 49.2915 95.0004 49.2975 94.9957 49.3035C94.994 49.3056 94.9923 49.3077 94.9906 49.3099L94.9606 48.8156H94.1001V52.9174H95.0137Z" fill="#004E89"/>
<path d="M100.235 52.1782C100.116 52.2363 99.9824 52.2654 99.8333 52.2654C99.6463 52.2654 99.4921 52.2287 99.3708 52.1554C99.2495 52.0796 99.1535 51.9798 99.0827 51.8559C99.0145 51.7296 98.9664 51.5868 98.9386 51.4276C98.9108 51.2683 98.8969 51.1041 98.8969 50.9347V50.802C98.8969 50.6327 98.9108 50.4697 98.9386 50.313C98.969 50.1538 99.0182 50.011 99.0865 49.8846C99.1547 49.7557 99.2495 49.6546 99.3708 49.5813C99.4921 49.5055 99.645 49.4676 99.8295 49.4676C99.9963 49.4676 100.139 49.5043 100.258 49.5775C100.379 49.6508 100.473 49.7494 100.538 49.8732C100.607 49.9946 100.645 50.131 100.652 50.2827H101.513C101.508 49.9769 101.433 49.709 101.289 49.479C101.148 49.2465 100.953 49.0658 100.705 48.9369C100.458 48.8054 100.169 48.7397 99.8409 48.7397C99.53 48.7397 99.2583 48.7941 99.0258 48.9027C98.7933 49.0089 98.6 49.1567 98.4458 49.3463C98.2916 49.5358 98.1754 49.7557 98.097 50.0059C98.0212 50.2536 97.9833 50.519 97.9833 50.802V50.9347C97.9833 51.2178 98.0212 51.4832 98.097 51.7308C98.1754 51.9785 98.2916 52.1971 98.4458 52.3867C98.6 52.5762 98.7933 52.7254 99.0258 52.834C99.2583 52.9402 99.5313 52.9933 99.8447 52.9933C100.148 52.9933 100.425 52.9301 100.675 52.8037C100.925 52.6748 101.126 52.5017 101.278 52.2843C101.429 52.067 101.508 51.8256 101.513 51.5602H100.652C100.645 51.6993 100.603 51.8218 100.527 51.928C100.454 52.0341 100.356 52.1175 100.235 52.1782Z" fill="#004E89"/>
<path d="M102.92 48.8156V52.9174H102.003V48.8156H102.92Z" fill="#004E89"/>
<path d="M101.942 47.7389C101.942 47.5999 101.988 47.4849 102.079 47.3939C102.172 47.3004 102.301 47.2537 102.465 47.2537C102.627 47.2537 102.755 47.3004 102.848 47.3939C102.942 47.4849 102.989 47.5999 102.989 47.7389C102.989 47.8754 102.942 47.9891 102.848 48.0801C102.755 48.1711 102.627 48.2166 102.465 48.2166C102.301 48.2166 102.172 48.1711 102.079 48.0801C101.988 47.9891 101.942 47.8754 101.942 47.7389Z" fill="#004E89"/>
<path fill-rule="evenodd" clip-rule="evenodd" d="M105.992 52.5126C105.956 52.5521 105.917 52.591 105.875 52.6293C105.759 52.7355 105.618 52.8227 105.454 52.8909C105.292 52.9591 105.105 52.9933 104.893 52.9933C104.625 52.9933 104.386 52.9402 104.176 52.834C103.967 52.7254 103.802 52.58 103.684 52.3981C103.565 52.2136 103.505 52.0051 103.505 51.7725C103.505 51.5552 103.546 51.3631 103.627 51.1963C103.71 51.027 103.831 50.8854 103.991 50.7717C104.152 50.658 104.35 50.5721 104.582 50.5139C104.815 50.4533 105.08 50.4229 105.378 50.4229H105.962V50.1386C105.962 49.992 105.935 49.8657 105.882 49.7595C105.829 49.6534 105.748 49.5712 105.64 49.5131C105.534 49.455 105.4 49.4259 105.238 49.4259C105.089 49.4259 104.96 49.4512 104.851 49.5017C104.743 49.5523 104.658 49.6205 104.597 49.7064C104.537 49.7924 104.506 49.8897 104.506 49.9984H103.596C103.596 49.8366 103.636 49.6799 103.714 49.5283C103.792 49.3766 103.906 49.2414 104.055 49.1226C104.204 49.0038 104.382 48.9103 104.59 48.8421C104.797 48.7739 105.029 48.7397 105.287 48.7397C105.596 48.7397 105.869 48.7915 106.106 48.8952C106.346 48.9988 106.534 49.1555 106.671 49.3652C106.81 49.5725 106.879 49.8328 106.879 50.1462V51.9697C106.879 52.1567 106.892 52.3248 106.917 52.4739C106.945 52.6205 106.984 52.7481 107.035 52.8568V52.9174H106.099C106.056 52.8189 106.021 52.6938 105.996 52.5421C105.995 52.5372 105.995 52.5323 105.994 52.5273L105.993 52.5218L105.992 52.5126ZM105.962 51.7595C105.944 51.796 105.921 51.8332 105.894 51.8711C105.813 51.9823 105.702 52.0771 105.56 52.1554C105.421 52.2313 105.258 52.2692 105.071 52.2692C104.932 52.2692 104.813 52.2439 104.715 52.1934C104.619 52.1428 104.545 52.0733 104.495 51.9848C104.444 51.8939 104.419 51.794 104.419 51.6854C104.419 51.5767 104.441 51.4794 104.484 51.3934C104.527 51.3075 104.591 51.2342 104.677 51.1736C104.763 51.1129 104.87 51.0674 104.999 51.0371C105.128 51.0042 105.277 50.9878 105.446 50.9878H105.962V51.7595Z" fill="#004E89"/>
<path fill-rule="evenodd" clip-rule="evenodd" d="M111.033 52.9933C110.73 52.9933 110.456 52.944 110.21 52.8454C109.968 52.7443 109.761 52.604 109.589 52.4246C109.419 52.2452 109.289 52.0341 109.198 51.7915C109.107 51.5489 109.062 51.2873 109.062 51.0068V50.8551C109.062 50.5341 109.108 50.2435 109.202 49.9832C109.296 49.7229 109.426 49.5005 109.592 49.316C109.759 49.1289 109.956 48.9861 110.184 48.8876C110.411 48.789 110.658 48.7397 110.923 48.7397C111.216 48.7397 111.473 48.789 111.693 48.8876C111.913 48.9861 112.095 49.1252 112.239 49.3046C112.385 49.4815 112.494 49.6925 112.565 49.9377C112.638 50.1828 112.675 50.4533 112.675 50.749V51.1394H109.984C109.993 51.2691 110.015 51.3917 110.051 51.5072C110.102 51.6588 110.175 51.7915 110.271 51.9052C110.367 52.019 110.483 52.1087 110.62 52.1744C110.756 52.2376 110.912 52.2692 111.086 52.2692C111.306 52.2692 111.502 52.2249 111.674 52.1365C111.846 52.048 111.995 51.9229 112.121 51.7612L112.603 52.2275C112.514 52.3564 112.399 52.4802 112.258 52.599C112.116 52.7152 111.943 52.81 111.738 52.8833C111.536 52.9566 111.301 52.9933 111.033 52.9933ZM110.04 50.2827C110.025 50.3466 110.012 50.4136 110.003 50.4836H111.772V50.4116C111.767 50.2473 111.734 50.0931 111.674 49.9491C111.616 49.805 111.526 49.6887 111.405 49.6003C111.283 49.5118 111.122 49.4676 110.919 49.4676C110.768 49.4676 110.632 49.5005 110.514 49.5662C110.397 49.6294 110.3 49.7216 110.222 49.8429C110.143 49.9642 110.083 50.1108 110.04 50.2827Z" fill="#004E89"/>
<path d="M114.029 49.9685V52.9174H113.116V48.8156H113.976L114.006 49.2776C114.139 49.1094 114.302 48.9794 114.495 48.8876C114.7 48.789 114.936 48.7397 115.204 48.7397C115.391 48.7397 115.562 48.7675 115.716 48.8231C115.873 48.8762 116.008 48.9609 116.122 49.0771C116.206 49.1616 116.276 49.2635 116.331 49.3828C116.355 49.3481 116.38 49.3144 116.406 49.2818C116.543 49.1125 116.711 48.9798 116.91 48.8838C117.11 48.7877 117.339 48.7397 117.597 48.7397C117.806 48.7397 117.993 48.7688 118.158 48.8269C118.324 48.8825 118.466 48.971 118.582 49.0923C118.698 49.2136 118.787 49.3716 118.848 49.5662C118.908 49.7583 118.939 49.9908 118.939 50.2637V52.9174H118.021V50.2599C118.021 50.0527 117.991 49.8922 117.93 49.7785C117.872 49.6647 117.789 49.5864 117.68 49.5434C117.571 49.4979 117.441 49.4752 117.289 49.4752C117.148 49.4752 117.023 49.5017 116.914 49.5548C116.808 49.6053 116.718 49.6774 116.645 49.7709C116.573 49.8603 116.518 49.9631 116.48 50.0794C116.481 50.1136 116.482 50.1485 116.482 50.1841V52.9174H115.568V50.2637C115.568 50.0641 115.538 49.9074 115.477 49.7936C115.419 49.6799 115.335 49.599 115.223 49.551C115.115 49.5005 114.985 49.4752 114.833 49.4752C114.661 49.4752 114.514 49.508 114.393 49.5738C114.274 49.6395 114.177 49.7292 114.101 49.8429C114.075 49.8826 114.051 49.9245 114.029 49.9685Z" fill="#004E89"/>
<path d="M124.972 52.163V52.9174H121.36V47.3977H124.954V48.1559H122.311V49.7027H124.59V50.4457H122.311V52.163H124.972Z" fill="#004E89"/>
<path fill-rule="evenodd" clip-rule="evenodd" d="M127.855 52.4787C127.73 52.6368 127.579 52.7603 127.404 52.8492C127.217 52.9452 126.998 52.9933 126.748 52.9933C126.5 52.9933 126.277 52.9414 126.077 52.8378C125.88 52.7342 125.712 52.5889 125.573 52.4019C125.434 52.2148 125.328 51.995 125.254 51.7422C125.181 51.487 125.144 51.2102 125.144 50.912V50.8324C125.144 50.5215 125.181 50.2384 125.254 49.9832C125.328 49.7254 125.434 49.5043 125.573 49.3198C125.712 49.1327 125.881 48.9899 126.081 48.8914C126.28 48.7903 126.505 48.7397 126.755 48.7397C127.003 48.7397 127.221 48.7877 127.408 48.8838C127.562 48.9629 127.697 49.0703 127.813 49.2061V47.0944H128.731V52.9174H127.9L127.855 52.4787ZM127.813 49.9879C127.777 49.9141 127.734 49.8468 127.684 49.7861C127.606 49.6875 127.509 49.6117 127.392 49.5586C127.279 49.503 127.143 49.4752 126.987 49.4752C126.82 49.4752 126.678 49.5106 126.562 49.5813C126.446 49.6521 126.35 49.7494 126.274 49.8732C126.201 49.9971 126.146 50.1411 126.111 50.3054C126.076 50.4697 126.058 50.6454 126.058 50.8324V50.912C126.058 51.099 126.074 51.2734 126.107 51.4351C126.143 51.5969 126.197 51.7397 126.27 51.8635C126.344 51.9848 126.438 52.0809 126.555 52.1516C126.673 52.2199 126.815 52.254 126.979 52.254C127.186 52.254 127.357 52.2085 127.491 52.1175C127.625 52.0265 127.73 51.904 127.806 51.7498C127.808 51.7447 127.811 51.7396 127.813 51.7344V49.9879Z" fill="#004E89"/>
<path d="M131.461 52.853C131.641 52.7654 131.791 52.6474 131.912 52.499L131.935 52.9174H132.8V48.8156H131.882V51.7591C131.817 51.8994 131.72 52.0138 131.59 52.1024C131.441 52.2035 131.236 52.254 130.976 52.254C130.885 52.254 130.799 52.2414 130.718 52.2161C130.637 52.1908 130.567 52.1479 130.506 52.0872C130.445 52.0265 130.397 51.9469 130.362 51.8484C130.327 51.7473 130.309 51.6222 130.309 51.4731V48.8156H129.395V51.4655C129.395 51.7359 129.428 51.9684 129.494 52.163C129.56 52.3576 129.652 52.5156 129.771 52.6369C129.892 52.7582 130.036 52.8479 130.203 52.9061C130.37 52.9642 130.553 52.9933 130.752 52.9933C131.028 52.9933 131.264 52.9465 131.461 52.853Z" fill="#004E89"/>
<path d="M135.542 52.1782C135.423 52.2363 135.289 52.2654 135.14 52.2654C134.953 52.2654 134.799 52.2287 134.677 52.1554C134.556 52.0796 134.46 51.9798 134.389 51.8559C134.321 51.7296 134.273 51.5868 134.245 51.4276C134.217 51.2683 134.203 51.1041 134.203 50.9347V50.802C134.203 50.6327 134.217 50.4697 134.245 50.313C134.276 50.1538 134.325 50.011 134.393 49.8846C134.461 49.7557 134.556 49.6546 134.677 49.5813C134.799 49.5055 134.952 49.4676 135.136 49.4676C135.303 49.4676 135.446 49.5043 135.564 49.5775C135.686 49.6508 135.779 49.7494 135.845 49.8732C135.913 49.9946 135.951 50.131 135.959 50.2827H136.819C136.814 49.9769 136.74 49.709 136.596 49.479C136.454 49.2465 136.259 49.0658 136.012 48.9369C135.764 48.8054 135.476 48.7397 135.147 48.7397C134.837 48.7397 134.565 48.7941 134.332 48.9027C134.1 49.0089 133.907 49.1567 133.752 49.3463C133.598 49.5358 133.482 49.7557 133.404 50.0059C133.328 50.2536 133.29 50.519 133.29 50.802V50.9347C133.29 51.2178 133.328 51.4832 133.404 51.7308C133.482 51.9785 133.598 52.1971 133.752 52.3867C133.907 52.5762 134.1 52.7254 134.332 52.834C134.565 52.9402 134.838 52.9933 135.151 52.9933C135.455 52.9933 135.731 52.9301 135.981 52.8037C136.232 52.6748 136.433 52.5017 136.584 52.2843C136.736 52.067 136.814 51.8256 136.819 51.5602H135.959C135.951 51.6993 135.909 51.8218 135.834 51.928C135.76 52.0341 135.663 52.1175 135.542 52.1782Z" fill="#004E89"/>
<path fill-rule="evenodd" clip-rule="evenodd" d="M139.474 52.6293C139.516 52.591 139.555 52.5521 139.591 52.5126C139.593 52.5224 139.594 52.5323 139.596 52.5421C139.621 52.6938 139.655 52.8189 139.698 52.9174H140.634V52.8568C140.584 52.7481 140.545 52.6205 140.517 52.4739C140.491 52.3248 140.479 52.1567 140.479 51.9697V50.1462C140.479 49.8328 140.409 49.5725 140.27 49.3652C140.134 49.1555 139.946 48.9988 139.705 48.8952C139.468 48.7915 139.195 48.7397 138.887 48.7397C138.629 48.7397 138.396 48.7739 138.189 48.8421C137.982 48.9103 137.804 49.0038 137.655 49.1226C137.505 49.2414 137.392 49.3766 137.313 49.5283C137.235 49.6799 137.196 49.8366 137.196 49.9984H138.106C138.106 49.8897 138.136 49.7924 138.197 49.7064C138.257 49.6205 138.342 49.5523 138.451 49.5017C138.559 49.4512 138.688 49.4259 138.837 49.4259C138.999 49.4259 139.133 49.455 139.239 49.5131C139.348 49.5712 139.429 49.6534 139.482 49.7595C139.535 49.8657 139.561 49.992 139.561 50.1386V50.4229H138.978C138.679 50.4229 138.414 50.4533 138.181 50.5139C137.949 50.5721 137.752 50.658 137.59 50.7717C137.431 50.8854 137.31 51.027 137.226 51.1963C137.145 51.3631 137.105 51.5552 137.105 51.7725C137.105 52.0051 137.164 52.2136 137.283 52.3981C137.402 52.58 137.566 52.7254 137.776 52.834C137.986 52.9402 138.224 52.9933 138.492 52.9933C138.705 52.9933 138.892 52.9591 139.053 52.8909C139.218 52.8227 139.358 52.7355 139.474 52.6293ZM139.493 51.8711C139.52 51.8332 139.543 51.796 139.561 51.7595V50.9878H139.046C138.877 50.9878 138.727 51.0042 138.598 51.0371C138.47 51.0674 138.362 51.1129 138.276 51.1736C138.19 51.2342 138.126 51.3075 138.083 51.3934C138.04 51.4794 138.018 51.5767 138.018 51.6854C138.018 51.794 138.044 51.8939 138.094 51.9848C138.145 52.0733 138.218 52.1428 138.314 52.1934C138.413 52.2439 138.531 52.2692 138.671 52.2692C138.858 52.2692 139.021 52.2313 139.16 52.1554C139.301 52.0771 139.412 51.9823 139.493 51.8711Z" fill="#004E89"/>
<path d="M143.24 52.1782C143.121 52.2363 142.987 52.2654 142.838 52.2654C142.651 52.2654 142.497 52.2287 142.376 52.1554C142.254 52.0796 142.158 51.9798 142.087 51.8559C142.019 51.7296 141.971 51.5868 141.943 51.4276C141.916 51.2683 141.902 51.1041 141.902 50.9347V50.802C141.902 50.6327 141.916 50.4697 141.943 50.313C141.974 50.1538 142.023 50.011 142.091 49.8846C142.159 49.7557 142.254 49.6546 142.376 49.5813C142.497 49.5055 142.65 49.4676 142.834 49.4676C143.001 49.4676 143.144 49.5043 143.263 49.5775C143.384 49.6508 143.477 49.7494 143.543 49.8732C143.611 49.9946 143.649 50.131 143.657 50.2827H144.517C144.512 49.9769 144.438 49.709 144.294 49.479C144.152 49.2465 143.958 49.0658 143.71 48.9369C143.462 48.8054 143.174 48.7397 142.846 48.7397C142.535 48.7397 142.263 48.7941 142.031 48.9027C141.798 49.0089 141.605 49.1567 141.451 49.3463C141.296 49.5358 141.18 49.7557 141.102 50.0059C141.026 50.2536 140.988 50.519 140.988 50.802V50.9347C140.988 51.2178 141.026 51.4832 141.102 51.7308C141.18 51.9785 141.296 52.1971 141.451 52.3867C141.605 52.5762 141.798 52.7254 142.031 52.834C142.152 52.8896 142.285 52.9306 142.429 52.9571L142.319 53.452C142.453 53.4621 142.561 53.4785 142.645 53.5013C142.731 53.524 142.794 53.5569 142.834 53.5998C142.875 53.6428 142.895 53.7034 142.895 53.7818C142.895 53.8627 142.871 53.9284 142.823 53.9789C142.777 54.0295 142.715 54.0661 142.637 54.0889C142.559 54.1141 142.47 54.1268 142.372 54.1268L142.398 54.6424C142.603 54.6424 142.782 54.6221 142.937 54.5817C143.093 54.5413 143.223 54.4831 143.327 54.4073C143.433 54.334 143.513 54.2456 143.566 54.1419C143.619 54.0383 143.646 53.9221 143.646 53.7932C143.646 53.5758 143.585 53.4179 143.464 53.3193C143.345 53.2232 143.213 53.1626 143.069 53.1373L143.104 52.9777C143.309 52.9519 143.501 52.8939 143.68 52.8037C143.93 52.6748 144.131 52.5017 144.282 52.2843C144.434 52.067 144.512 51.8256 144.517 51.5602H143.657C143.649 51.6993 143.608 51.8218 143.532 51.928C143.459 52.0341 143.361 52.1175 143.24 52.1782Z" fill="#004E89"/>
<path fill-rule="evenodd" clip-rule="evenodd" d="M147.172 52.6293C147.214 52.591 147.253 52.5521 147.289 52.5126C147.29 52.5185 147.291 52.5244 147.292 52.5303L147.294 52.5421C147.319 52.6938 147.353 52.8189 147.396 52.9174H148.332V52.8568C148.282 52.7481 148.243 52.6205 148.215 52.4739C148.19 52.3248 148.177 52.1567 148.177 51.9697V50.1462C148.177 49.8328 148.108 49.5725 147.969 49.3652C147.832 49.1555 147.644 48.9988 147.404 48.8952C147.166 48.7915 146.893 48.7397 146.585 48.7397C146.327 48.7397 146.094 48.7739 145.887 48.8421C145.68 48.9103 145.502 49.0038 145.353 49.1226C145.204 49.2414 145.09 49.3766 145.012 49.5283C144.933 49.6799 144.894 49.8366 144.894 49.9984H145.804C145.804 49.8897 145.834 49.7924 145.895 49.7064C145.955 49.6205 146.04 49.5523 146.149 49.5017C146.258 49.4512 146.386 49.4259 146.536 49.4259C146.697 49.4259 146.831 49.455 146.937 49.5131C147.046 49.5712 147.127 49.6534 147.18 49.7595C147.233 49.8657 147.26 49.992 147.26 50.1386V50.4229H146.676C146.378 50.4229 146.112 50.4533 145.88 50.5139C145.647 50.5721 145.45 50.658 145.288 50.7717C145.129 50.8854 145.008 51.027 144.924 51.1963C144.843 51.3631 144.803 51.5552 144.803 51.7725C144.803 52.0051 144.862 52.2136 144.981 52.3981C145.1 52.58 145.264 52.7254 145.474 52.834C145.684 52.9402 145.923 52.9933 146.191 52.9933C146.403 52.9933 146.59 52.9591 146.752 52.8909C146.916 52.8227 147.056 52.7355 147.172 52.6293ZM147.191 51.8711C147.218 51.8332 147.241 51.796 147.26 51.7595V50.9878H146.744C146.575 50.9878 146.426 51.0042 146.297 51.0371C146.168 51.0674 146.06 51.1129 145.974 51.1736C145.888 51.2342 145.824 51.3075 145.781 51.3934C145.738 51.4794 145.717 51.5767 145.717 51.6854C145.717 51.794 145.742 51.8939 145.792 51.9848C145.843 52.0733 145.916 52.1428 146.012 52.1934C146.111 52.2439 146.23 52.2692 146.369 52.2692C146.556 52.2692 146.719 52.2313 146.858 52.1554C146.999 52.0771 147.11 51.9823 147.191 51.8711Z" fill="#004E89"/>
<path d="M147.449 47.1399L148.006 47.1816C148.006 47.3661 147.97 47.5317 147.896 47.6782C147.823 47.8223 147.723 47.936 147.597 48.0194C147.471 48.1028 147.328 48.1445 147.169 48.1445C147.045 48.1445 146.94 48.1268 146.854 48.0915C146.768 48.0561 146.69 48.0156 146.619 47.9702C146.548 47.9247 146.475 47.8855 146.399 47.8526C146.326 47.8172 146.239 47.7996 146.137 47.7996C146.041 47.7996 145.959 47.8349 145.891 47.9057C145.825 47.9765 145.792 48.0712 145.792 48.19L145.231 48.1597C145.231 47.9777 145.268 47.8135 145.341 47.6669C145.415 47.5203 145.514 47.404 145.641 47.3181C145.767 47.2322 145.91 47.1892 146.069 47.1892C146.173 47.1892 146.266 47.2069 146.35 47.2423C146.436 47.2751 146.517 47.3143 146.592 47.3598C146.671 47.4053 146.75 47.4457 146.831 47.4811C146.912 47.5165 147.002 47.5342 147.1 47.5342C147.196 47.5342 147.279 47.4975 147.347 47.4242C147.415 47.351 147.449 47.2562 147.449 47.1399Z" fill="#004E89"/>
<path fill-rule="evenodd" clip-rule="evenodd" d="M148.686 50.8248V50.912C148.686 51.2077 148.729 51.4819 148.815 51.7346C148.901 51.9874 149.026 52.2085 149.19 52.3981C149.355 52.5851 149.554 52.7317 149.789 52.8378C150.027 52.9414 150.296 52.9933 150.597 52.9933C150.895 52.9933 151.162 52.9414 151.397 52.8378C151.632 52.7317 151.832 52.5851 151.996 52.3981C152.16 52.2085 152.285 51.9874 152.371 51.7346C152.457 51.4819 152.5 51.2077 152.5 50.912V50.8248C152.5 50.5291 152.457 50.2549 152.371 50.0021C152.285 49.7469 152.16 49.5257 151.996 49.3387C151.832 49.1492 151.631 49.0026 151.393 48.899C151.158 48.7928 150.89 48.7397 150.589 48.7397C150.291 48.7397 150.023 48.7928 149.786 48.899C149.551 49.0026 149.351 49.1492 149.187 49.3387C149.025 49.5257 148.901 49.7469 148.815 50.0021C148.729 50.2549 148.686 50.5291 148.686 50.8248ZM149.6 50.912V50.8248C149.6 50.6428 149.619 50.471 149.657 50.3092C149.695 50.1449 149.754 49.9996 149.835 49.8732C149.916 49.7469 150.018 49.6483 150.142 49.5775C150.268 49.5043 150.417 49.4676 150.589 49.4676C150.761 49.4676 150.909 49.5043 151.033 49.5775C151.159 49.6483 151.263 49.7469 151.344 49.8732C151.427 49.9996 151.488 50.1449 151.526 50.3092C151.566 50.471 151.586 50.6428 151.586 50.8248V50.912C151.586 51.0965 151.566 51.2709 151.526 51.4351C151.488 51.5994 151.428 51.7435 151.348 51.8673C151.267 51.9912 151.163 52.0885 151.037 52.1592C150.913 52.23 150.766 52.2654 150.597 52.2654C150.423 52.2654 150.272 52.23 150.146 52.1592C150.019 52.0885 149.916 51.9912 149.835 51.8673C149.754 51.7435 149.695 51.5994 149.657 51.4351C149.619 51.2709 149.6 51.0965 149.6 50.912Z" fill="#004E89"/>
</svg>
